<svg xmlns="http://www.w3.org/2000/svg" width="1024" height="1024" viewBox="0 0 1024 1024">
  <rect width="1024" height="1024" fill="#2F2F2F"/>
  <polygon points="0,240 1024,0 1024,520" fill="#FFFFFF"/>

  <g fill="#FFFFFF">
    <g transform="translate(88 650)">
      <circle cx="26"  cy="26" r="26"/>
      <circle cx="100" cy="26" r="26"/>
      <circle cx="174" cy="26" r="26"/>

      <rect x="222" y="0" width="120" height="52" rx="26"/>
      <rect x="364" y="0" width="120" height="52" rx="26"/>
      <rect x="506" y="0" width="120" height="52" rx="26"/>

      <circle cx="674" cy="26" r="26"/>
      <circle cx="748" cy="26" r="26"/>
      <circle cx="822" cy="26" r="26"/>
    </g>

    <g opacity="0.55" transform="translate(148 780)">
      <circle cx="26"  cy="26" r="26"/>
      <circle cx="100" cy="26" r="26"/>
      <circle cx="174" cy="26" r="26"/>

      <rect x="222" y="0" width="120" height="52" rx="26"/>
      <rect x="364" y="0" width="120" height="52" rx="26"/>
      <rect x="506" y="0" width="120" height="52" rx="26"/>

      <circle cx="674" cy="26" r="26"/>
      <circle cx="748" cy="26" r="26"/>
      <circle cx="822" cy="26" r="26"/>
    </g>
  </g>
</svg>